<?xml version="1.0" standalone="no"?>
<!DOCTYPE svg PUBLIC "-//W3C//DTD SVG 20010904//EN"
 "http://www.w3.org/TR/2001/REC-SVG-20010904/DTD/svg10.dtd">
<svg version="1.0" xmlns="http://www.w3.org/2000/svg"
 width="512.000000pt" height="512.000000pt" viewBox="0 0 512.000000 512.000000"
 preserveAspectRatio="xMidYMid meet">
<metadata>
Created by potrace 1.16, written by Peter Selinger 2001-2019
</metadata>
<g transform="translate(0.000000,512.000000) scale(0.100000,-0.100000)"
fill="#000000" stroke="none">
<path d="M2523 4928 c-29 -48 -106 -203 -333 -673 -198 -410 -413 -851 -419
-857 -8 -9 -133 -28 -1024 -153 -769 -109 -737 -103 -737 -120 0 -13 345 -357
700 -696 135 -128 318 -306 407 -394 l161 -160 -74 -410 c-41 -225 -108 -603
-149 -840 -41 -237 -77 -445 -80 -462 -5 -28 -3 -33 15 -33 30 0 228 102 931
476 345 184 632 334 639 334 7 0 268 -136 579 -302 882 -470 1011 -534 1011
-501 0 15 -153 887 -230 1308 l-78 430 152 150 c84 83 316 307 516 498 474
453 633 617 596 617 -2 0 -94 14 -205 30 -111 17 -459 66 -774 110 -582 81
-769 109 -774 114 -2 2 -155 315 -341 697 -361 741 -431 880 -447 886 -6 2
-25 -20 -42 -49z"/>
</g>
</svg>
